<?xml version="1.0" encoding="iso-8859-1"?>
<!-- Generator: Adobe Illustrator 16.0.0, SVG Export Plug-In . SVG Version: 6.00 Build 0)  -->
<!DOCTYPE svg PUBLIC "-//W3C//DTD SVG 1.1//EN" "http://www.w3.org/Graphics/SVG/1.1/DTD/svg11.dtd">
<svg version="1.1" id="Capa_1" xmlns="http://www.w3.org/2000/svg" xmlns:xlink="http://www.w3.org/1999/xlink" x="0px" y="0px"
	 width="64px" height="64px" viewBox="0 0 64 64" style="enable-background:new 0 0 64 64;" xml:space="preserve">
<g>
	<g>
		<g id="circle_81_">
			<g>
				<path d="M31,29v-4c0-0.603,0-1.656,0-1.656s-0.907-0.046-1.41,0.287l-9.39,6.183c-0.457,0.303-0.731,0.688-0.731,1.233
					s0.274,1.055,0.731,1.357l9.39,5.775c0.503,0.336,1.41,0.352,1.41,0.352s0-0.93,0-1.531v-4c11.467,0,13.021,7.674,13.021,7.674
					C44.021,31.604,37.003,29,31,29z M32,0C14.327,0,0,14.327,0,32s14.327,32,32,32s32-14.327,32-32S49.673,0,32,0z M43.996,42.986
					C42.068,38.368,38.17,34.98,33,34.977v3.988c0,0.736-0.406,1.41-1.057,1.76c-0.65,0.346-1.439,0.31-2.053-0.101l-12-7.978
					c-0.556-0.371-0.89-0.994-0.89-1.66c0-0.667,0.334-1.289,0.891-1.659l12-7.978c0.613-0.407,1.402-0.446,2.053-0.1
					C32.594,21.599,33,22.273,33,23.01v3.989c6.628,0,12,5.356,12,11.966C45,40.365,44.809,41.704,43.996,42.986z"/>
			</g>
		</g>
	</g>
</g>
<g>
</g>
<g>
</g>
<g>
</g>
<g>
</g>
<g>
</g>
<g>
</g>
<g>
</g>
<g>
</g>
<g>
</g>
<g>
</g>
<g>
</g>
<g>
</g>
<g>
</g>
<g>
</g>
<g>
</g>
</svg>
